<?xml version="1.0" encoding="UTF-8" standalone="no"?>
<svg
   width="48"
   height="48"
   viewBox="0 0 32 32"
   fill="none"
   version="1.1"
   id="svg14"
   sodipodi:docname="part-fillet.svg"
   inkscape:version="1.4 (86a8ad7, 2024-10-11)"
   xmlns:inkscape="http://www.inkscape.org/namespaces/inkscape"
   xmlns:sodipodi="http://sodipodi.sourceforge.net/DTD/sodipodi-0.dtd"
   xmlns="http://www.w3.org/2000/svg"
   xmlns:svg="http://www.w3.org/2000/svg">
  <defs
     id="defs18" />
  <sodipodi:namedview
     id="namedview16"
     pagecolor="#505050"
     bordercolor="#ffffff"
     borderopacity="1"
     inkscape:showpageshadow="0"
     inkscape:pageopacity="0"
     inkscape:pagecheckerboard="1"
     inkscape:deskcolor="#505050"
     showgrid="false"
     showguides="true"
     inkscape:zoom="16"
     inkscape:cx="29.40625"
     inkscape:cy="26.84375"
     inkscape:window-width="3440"
     inkscape:window-height="1369"
     inkscape:window-x="1912"
     inkscape:window-y="-8"
     inkscape:window-maximized="1"
     inkscape:current-layer="svg14">
    <sodipodi:guide
       position="2.6277372,30.63747"
       orientation="0,-1"
       id="guide247"
       inkscape:locked="false" />
    <sodipodi:guide
       position="1.3041363,29.644769"
       orientation="1,0"
       id="guide249"
       inkscape:locked="false" />
    <sodipodi:guide
       position="30.63747,2.43309"
       orientation="1,0"
       id="guide251"
       inkscape:locked="false" />
    <sodipodi:guide
       position="6.7737226,1.3430657"
       orientation="0,-1"
       id="guide253"
       inkscape:locked="false" />
  </sodipodi:namedview>
  <path
     d="M 30.63747,7.217518 24.782482,1.36253 H 13.072506 C 6.605262,1.36253 1.36253,6.605262 1.36253,13.072506 V 24.782482 L 7.217518,30.63747 H 30.63747 Z"
     fill="#4d4d4d"
     id="path2"
     style="stroke-width:1.171;fill:#ffffff;fill-opacity:0" />
  <path
     d="m 17.756496,8.3885156 -5.854988,-5.854988 c -5.1737953,0 -9.3679808,4.1941855 -9.3679808,9.3679804 v 1.170998 l 5.854988,5.854988 v -1.170998 c 0,-5.173818 4.1941618,-9.3679804 9.3679808,-9.3679804 z"
     fill="#326276"
     id="path4"
     style="mix-blend-mode:normal;fill:#c2d3e6;fill-opacity:1;stroke-width:1.171" />
  <path
     d="m 11.901508,2.5335276 5.854988,5.854988"
     stroke="#f2f2f2"
     id="path10"
     style="stroke-width:1.171;stroke:#4290a8;stroke-opacity:1" />
  <path
     d="m 2.5335276,13.072506 5.854988,5.854988"
     stroke="#f2f2f2"
     id="path12"
     style="stroke-width:1.171;stroke:#4290a8;stroke-opacity:1" />
  <path
     fill-rule="evenodd"
     clip-rule="evenodd"
     d="M 30.64,30.64 H 7.22 L 1.36,24.78 V 13.07 C 1.36,6.61 6.61,1.36 13.07,1.36 H 24.78 L 30.64,7.22 Z M 13.07,3.7 h 10.74 l 4.1,4.1 h -8.98 c -6.14,0 -11.12,4.98 -11.12,11.12 V 27.91 L 3.7,23.81 V 13.07 c 0,-5.17 4.19,-9.37 9.37,-9.37 z M 8.97,28.3 H 28.3 V 8.97 h -9.37 c -5.5,0 -9.95,4.46 -9.95,9.95 z"
     fill="#f2f2f2"
     id="path8"
     style="stroke-width:1.17133333;stroke-dasharray:none;fill:#9fa0a2;fill-opacity:1" />
</svg>
